<svg xmlns="http://www.w3.org/2000/svg" width="58.362" height="62.49" viewBox="0 0 58.362 62.49">
  <g id="Astronaut-Helmet-Line-Art" transform="translate(-34.894 -37.949)">
    <path id="Path_1" data-name="Path 1" d="M62.054,38.02c.379-.054.763-.02,1.143-.053A28.351,28.351,0,0,1,71.1,38.8c.58.133,1.145.328,1.717.494.62.225,1.249.429,1.85.7.486.2.961.419,1.429.657.462.213.9.471,1.344.718a24.439,24.439,0,0,1,3.563,2.476,27.454,27.454,0,0,1,3.245,3.182,30.227,30.227,0,0,1,4.873,7.862,27.217,27.217,0,0,1,1.652,5.3,11.9,11.9,0,0,1,1.333.5,3.9,3.9,0,0,1,.792.432A1.31,1.31,0,0,1,93.14,62a2.614,2.614,0,0,1-.172.9c-.152.491-.346.969-.457,1.472-.034.139-.015.283-.036.424-.155,1.889-.382,3.772-.569,5.659a3.345,3.345,0,0,0,.033.791,4.246,4.246,0,0,1,.961.439.447.447,0,0,1,.24.334,22.435,22.435,0,0,1,.114,2.447,18.407,18.407,0,0,1-.159,2.683,16.674,16.674,0,0,1-.614,2.626,11.268,11.268,0,0,1-.9,2.15,3.136,3.136,0,0,1-.531.7,1.922,1.922,0,0,1-1.042.41,10.335,10.335,0,0,1-1.639.076,4.693,4.693,0,0,1-.157.534,1.735,1.735,0,0,1-.455.55,12.748,12.748,0,0,1-1.879,3.887c-.044.078-.156.155-.1.254a2.492,2.492,0,0,1-.144,1.873,4.7,4.7,0,0,1-.527.883,8.675,8.675,0,0,1,.039,1.277,2.026,2.026,0,0,1-.229.869A8.459,8.459,0,0,1,83.7,94.813a14.422,14.422,0,0,1-5.775,3.563c-.331.1-.663.2-.994.307-.959.254-1.932.453-2.906.642-1.688.327-3.384.618-5.092.808-1.522.179-3.052.265-4.584.3-1.085-.01-2.171.023-3.255-.03-1.468-.033-2.937-.1-4.4-.27a50.314,50.314,0,0,1-5.244-.907c-1.509-.343-3-.749-4.473-1.235-.768-.259-1.533-.527-2.28-.844A12.087,12.087,0,0,1,42.5,96.008a14.008,14.008,0,0,1-1.738-1.434,6.214,6.214,0,0,1-.775-.942,2.362,2.362,0,0,1-.382-.913,13.813,13.813,0,0,1-.013-1.725,3.249,3.249,0,0,1-.581-.954.984.984,0,0,1-.073-.382c.027-.651.06-1.3.13-1.951a11.6,11.6,0,0,1-1.616-1.723A9.071,9.071,0,0,1,35.521,81.8c-.017-.2-.045-.4-.046-.594a.963.963,0,0,0-.089-.33,7.508,7.508,0,0,1-.488-2.807,7.148,7.148,0,0,1,.856-3.036,16.394,16.394,0,0,1,.949-1.587,2.429,2.429,0,0,1-.326-.874,9.324,9.324,0,0,1-.217-1.805,13.163,13.163,0,0,1,.731-3.7,10.642,10.642,0,0,1,.414-1.08.359.359,0,0,0,.042-.153,11.478,11.478,0,0,0,0-1.526,5.852,5.852,0,0,0-.025-.613c-.046-.921-.1-1.843-.209-2.76a.563.563,0,0,0-.091-.24,4.2,4.2,0,0,1-.535-1.556.832.832,0,0,1,.333-.714,2.606,2.606,0,0,1,1.323-.484c.086-.444.146-.894.265-1.333a18.38,18.38,0,0,1,2.076-4.886A27.069,27.069,0,0,1,44.332,46.7a29.577,29.577,0,0,1,9.686-6.726,24.824,24.824,0,0,1,8.037-1.95m.076.954a24.266,24.266,0,0,0-3.566.494,27.253,27.253,0,0,0-7.811,3.06,30.18,30.18,0,0,0-7.83,6.549,23.659,23.659,0,0,0-3.418,5.329,1.813,1.813,0,0,1-.14.286c-.06.2-.15.39-.223.586a12.494,12.494,0,0,0-.844,3.56,3.47,3.47,0,0,0-.014.814c.024-.21.007-.422.018-.632a13.585,13.585,0,0,1,.883-3.775,1,1,0,0,1,.117-.268,2.356,2.356,0,0,1,.227-.536c.026-.065.046-.132.076-.194a14.2,14.2,0,0,1,1.2-2.087,13.6,13.6,0,0,1,4.513-4.1,20.791,20.791,0,0,1,5.875-2.112,32.187,32.187,0,0,1,3.93-.559c.355-.042.715-.042,1.067-.106a5.739,5.739,0,0,1,1.241-.75c.417-.046.837,0,1.255-.008.943.051,1.887.094,2.824.211a.834.834,0,0,1,.571.214c.163.184.114.444.122.668a39.034,39.034,0,0,1,12.14,3.71,28.339,28.339,0,0,1,7.124,5.031A29.257,29.257,0,0,1,83.7,56.841a32.368,32.368,0,0,1,2.624,3.687c.354.576.675,1.172,1.015,1.756.156-.047.249-.19.373-.286a20.873,20.873,0,0,0,1.828-1.833,4.16,4.16,0,0,0,.636-.935c.029-.077.084-.16.042-.243a30.612,30.612,0,0,0-1.405-3.664A31.069,31.069,0,0,0,83.938,47.8a26.056,26.056,0,0,0-9.1-6.724c-.546-.225-1.087-.46-1.649-.645-.629-.241-1.279-.416-1.923-.608-.356-.089-.714-.171-1.07-.257-.406-.1-.821-.162-1.231-.24-.579-.114-1.165-.171-1.75-.243-.978-.112-1.963-.141-2.947-.171-.423-.013-.845.013-1.267.03a8.092,8.092,0,0,0-.872.035m-4.587,6.133a3.051,3.051,0,0,0-.717.453c.888,0,1.776.016,2.661.076.717.022,1.429.111,2.142.18a3.282,3.282,0,0,1-.009-.467c-.39-.06-.784-.085-1.176-.126-.966-.054-1.933-.149-2.9-.117m-2.914,1.181a24.158,24.158,0,0,0-4.357.692,16.271,16.271,0,0,0-5.184,2.339A15.381,15.381,0,0,0,42.138,52a11.431,11.431,0,0,0-2.333,4.625,10.94,10.94,0,0,0-.228,3.854c.064-.384.171-.76.262-1.138a2.335,2.335,0,0,0,.031-.512,12.608,12.608,0,0,1,2.566-6.841,12.842,12.842,0,0,1,4.4-3.553,18.04,18.04,0,0,1,4.793-1.556,19.187,19.187,0,0,1,2.122-.3c.785-.1,1.577-.1,2.366-.141.611.011,1.224-.011,1.835.031.819.018,1.637.07,2.453.141a40.632,40.632,0,0,1,7.393,1.3A32.055,32.055,0,0,1,75.986,51.4a25.311,25.311,0,0,1,6.571,5.671,15.879,15.879,0,0,1,1.207,1.651c.4.632.771,1.284,1.122,1.946A27.4,27.4,0,0,1,86.7,64.84a9.862,9.862,0,0,1,.545,2.823c0,.149-.031.332.107.434a1.128,1.128,0,0,0,.811.171c-.15-.084-.376-.081-.446-.267a6.7,6.7,0,0,1-.23-1.057q-.135-.809-.273-1.616a10.234,10.234,0,0,0-.908-2.573q-.446-.914-.958-1.793a39.667,39.667,0,0,0-2.6-3.906A28.422,28.422,0,0,0,80.1,53.971,16.393,16.393,0,0,0,78.121,52.4,30.679,30.679,0,0,0,74,50.049a40.334,40.334,0,0,0-6.663-2.471c-.686-.2-1.386-.349-2.081-.518-.529-.112-1.062-.206-1.594-.31-.7-.111-1.4-.218-2.106-.3-.434-.037-.868-.081-1.3-.124-.676-.044-1.353-.075-2.03-.108-1.2-.021-2.4-.029-3.6.068m0,.918c-.8.071-1.6.122-2.4.254a18.78,18.78,0,0,0-4.872,1.384,12.819,12.819,0,0,0-4.324,3.136,1.057,1.057,0,0,0,.291.535.651.651,0,0,0,.52-.1A23.176,23.176,0,0,1,49.1,49.968a23.719,23.719,0,0,1,8.206-1.2,4.949,4.949,0,0,1,.63.033,23.323,23.323,0,0,1,2.695.335c.565.084,1.12.225,1.68.337a44.34,44.34,0,0,1,7.266,2.4q2.623,1.116,5.13,2.482c.627.339,1.245.692,1.871,1.033a3.332,3.332,0,0,0,1.032.338,1.282,1.282,0,0,0,.93-.294A3.509,3.509,0,0,0,79.3,54.5a29.944,29.944,0,0,0-11.054-5.722,41.323,41.323,0,0,0-7.385-1.389c-1.155-.114-2.315-.176-3.475-.224-.574,0-1.149,0-1.724,0-.345.009-.688.045-1.034.039m-11.9,3.317A13.962,13.962,0,0,0,38.7,58.162a7.417,7.417,0,0,0-.121,1.745c.013.071.021.162.1.2a1.257,1.257,0,0,0,.719.143,9.929,9.929,0,0,1-.072-2.107,11.335,11.335,0,0,1,1.4-4.8,12.845,12.845,0,0,1,2.691-3.316c.362-.342.761-.642,1.147-.956a13.167,13.167,0,0,0-1.831,1.456m10.712-.98a25.962,25.962,0,0,0-5.106,1.35,24.881,24.881,0,0,0-4.2,2.026,1.261,1.261,0,0,1-.935.151,5.725,5.725,0,0,0-.5.631,17.041,17.041,0,0,0-1.374,2.487,27.222,27.222,0,0,0-1.454,4.042c.053-.088.094-.182.14-.274a17.561,17.561,0,0,1,2.448-3.746A14.875,14.875,0,0,1,45.983,53.2,17.611,17.611,0,0,1,53.524,50.8c.468-.071.941-.065,1.411-.107q1.109-.036,2.22,0c.281.01.561.044.842.04a42.451,42.451,0,0,1,12.146,2.5,31.051,31.051,0,0,1,2.87,1.253c.779.407,1.551.829,2.29,1.306.606.4,1.2.806,1.771,1.254a20.023,20.023,0,0,1,3.166,3.107,16.769,16.769,0,0,1,3.467,7.649,20.173,20.173,0,0,1,.252,2.083c0,.588.069,1.176.024,1.764-.031.354,0,.712-.054,1.065-.024.335-.062.669-.09,1a23.123,23.123,0,0,1-.471,2.62,15.783,15.783,0,0,1-.814,2.394,14.5,14.5,0,0,1-2.463,3.884,16.361,16.361,0,0,1-3.527,2.973A21.908,21.908,0,0,1,72.1,87.694a35.187,35.187,0,0,1-10.625,1.729c-.955-.007-1.91.022-2.863-.037-.307.011-.612-.039-.919-.04a49.7,49.7,0,0,1-8.1-1.155c-.907-.214-1.811-.442-2.7-.736a13.143,13.143,0,0,1-4.025-2.211,14.323,14.323,0,0,1-3.07-3.469,17.919,17.919,0,0,1-2.1-4.758,24.363,24.363,0,0,0,.457,4.946,9.929,9.929,0,0,0,.756,2.268,1.41,1.41,0,0,0,.3.346,13.848,13.848,0,0,0,1.8,1.449,22.49,22.49,0,0,0,4.453,2.294A33.658,33.658,0,0,0,50.3,89.785c.306.062.608.144.918.18a.823.823,0,0,1,.382-.193c.256-.01.511-.024.768-.025a10.893,10.893,0,0,1,2.227.194c.253.067.554.151.665.417.424.028.85.03,1.275.058.639,0,1.278.033,1.917.02A52.352,52.352,0,0,0,65.1,90a41.327,41.327,0,0,0,10-2.545,30.271,30.271,0,0,0,8.205-4.844,12.509,12.509,0,0,0,2.758-3.192l-.119.012a26.289,26.289,0,0,1-.226-4.155,20.124,20.124,0,0,1,.765-4.474,9.748,9.748,0,0,1,.948-2.288c.19.017.382.019.573.026.122.483.227.97.351,1.453-.065.057-.128.117-.19.178a1.538,1.538,0,0,1,.946,1.138,4.387,4.387,0,0,0-.058-2.006,2.074,2.074,0,0,0-.68-1.02c-.059.075-.118.15-.179.223a1.639,1.639,0,0,1-.892-.086.623.623,0,0,1-.361-.483,7.344,7.344,0,0,0-.221-1.767,16.643,16.643,0,0,0-.863-2.539,30.924,30.924,0,0,0-2.067-4.017A14.865,14.865,0,0,0,82.5,57.767a23.612,23.612,0,0,0-3.03-3.125,2.887,2.887,0,0,1-.584,1.024,1.607,1.607,0,0,1-.933.5,1.838,1.838,0,0,1-.787-.058,4.569,4.569,0,0,1-.957-.382c-.8-.431-1.593-.868-2.4-1.28A50.844,50.844,0,0,0,62.278,50c-.679-.14-1.354-.306-2.042-.4a19.114,19.114,0,0,0-4-.3,19.968,19.968,0,0,0-2.8.241m1.727,1.912c-.447.042-.9.038-1.344.089s-.893.086-1.335.166-.909.142-1.353.259a15.372,15.372,0,0,0-6.178,2.852A15.188,15.188,0,0,0,41.65,58.43a19.973,19.973,0,0,0-2.2,4.532,33.57,33.57,0,0,0-1.631,10.286c-.023.625-.013,1.25,0,1.876a8.365,8.365,0,0,0,.148.829,17.6,17.6,0,0,0,2.038,5.155,13.667,13.667,0,0,0,3.248,3.754A12.525,12.525,0,0,0,47.1,86.928c.792.258,1.6.46,2.412.65a49.039,49.039,0,0,0,8.441,1.156c.421,0,.841.052,1.262.039a39.108,39.108,0,0,0,10.009-.967A25.056,25.056,0,0,0,73.8,86.26a18.089,18.089,0,0,0,3.857-2.333,14.339,14.339,0,0,0,3.042-3.3,14.531,14.531,0,0,0,2.015-4.753c.167-.7.26-1.413.363-2.124a21.361,21.361,0,0,0,.154-2.717,17.231,17.231,0,0,0-.784-5.146c-.117-.423-.293-.826-.443-1.238a16.174,16.174,0,0,0-1.75-3.177,18.045,18.045,0,0,0-3.068-3.33,22.369,22.369,0,0,0-3.7-2.523,30.062,30.062,0,0,0-5.762-2.391A42.389,42.389,0,0,0,59.6,51.641c-.749-.072-1.5-.141-2.252-.16-.218-.015-.436-.036-.655-.031-.508,0-1.017-.007-1.525.005M40.135,58.143a1.107,1.107,0,0,0-.032.286,24.462,24.462,0,0,1,1.02-2.707,11.843,11.843,0,0,1,1.28-2.234,5.337,5.337,0,0,1,.525-.6.874.874,0,0,1-.2-.548,12.519,12.519,0,0,0-2.6,5.8m42.682-1.7a1.4,1.4,0,0,0,.207.3c.455.61.884,1.239,1.3,1.876A33.825,33.825,0,0,1,86.6,62.653a10.746,10.746,0,0,1,.857,2.5c.132.808.243,1.621.384,2.428a.907.907,0,0,0,.127.381,1.393,1.393,0,0,1,.78.262,2.439,2.439,0,0,1,.81,1.922,14.375,14.375,0,0,1-.671,3.814,5.221,5.221,0,0,0-.249,1.348c-.018.663-.011,1.327-.012,1.99-.007.358.033.715.043,1.073a3.211,3.211,0,0,0,.124.708.418.418,0,0,0,.24.219,2.345,2.345,0,0,0,.665.166,3.853,3.853,0,0,1-.181-1.013c-.031-.613-.059-1.226-.049-1.84a30.625,30.625,0,0,1,.776-5.343,19.181,19.181,0,0,0,.322-2.441c.069-.976.141-1.954.125-2.934a8.529,8.529,0,0,0-.674.8,1.875,1.875,0,0,1,.367,1.284,3.886,3.886,0,0,0,.02,1.3l-.111.031a3.927,3.927,0,0,1-.085-.644c-.018-.348.08-.689.06-1.036a2.27,2.27,0,0,0-.407-.934,5.073,5.073,0,0,1,.829-.938,8.433,8.433,0,0,0-.071-.863c-.357-.13-.712-.265-1.067-.4a1.133,1.133,0,0,1-1.231-.044,1.758,1.758,0,0,1-.374-.468c-.436-.658-.817-1.349-1.213-2.031-.425-.74-.868-1.47-1.349-2.176a37.59,37.59,0,0,0-2.571-3.324m-45.6,2.262c-.143.1-.3.242-.259.432a3.8,3.8,0,0,0,.429,1.3.99.99,0,0,1,.149.389c.114,1.015.136,2.036.187,3.055,0,.472.018.943,0,1.415a1.82,1.82,0,0,1-.153.92,14.749,14.749,0,0,0-.721,1.984,12.082,12.082,0,0,0-.466,2.412,8.1,8.1,0,0,0,.091,1.624,3.358,3.358,0,0,0,.3,1.1c.169-.255.345-.5.525-.752a42.107,42.107,0,0,1,.34-4.41A13.588,13.588,0,0,0,37,71.18a3.2,3.2,0,0,0,.093.887,1.944,1.944,0,0,1-.215-.731,5.791,5.791,0,0,1,.089-1.715,10.523,10.523,0,0,1,.839-2.68,3.337,3.337,0,0,0,.136-.588c.079-.446.186-.893.271-1.332a.52.52,0,0,0-.123-.02c-.034-.374-.035-.751-.068-1.125a1.987,1.987,0,0,1-.223-.955.616.616,0,0,1,.177-.476,2.039,2.039,0,0,1-.244-.753c-.041-.555-.129-1.105-.2-1.658a7.2,7.2,0,0,1,.444,1.6,3.792,3.792,0,0,0,.2.632,4.072,4.072,0,0,1,1.026-.5,3.578,3.578,0,0,0,.268-.8,1.593,1.593,0,0,0-.045-.5,1.731,1.731,0,0,1-.668-.047,1.077,1.077,0,0,1-.716-1.1,8.9,8.9,0,0,1,.062-1.015,3.463,3.463,0,0,0-.893.39M89.707,60.37a10.988,10.988,0,0,1-1.64,1.607,3.331,3.331,0,0,1-.654.457c.319.562.641,1.124,1,1.659a.735.735,0,0,0,.512.244,1.147,1.147,0,0,0,.785-.27c-.177,0-.377.06-.535-.047a.97.97,0,0,1-.328-.6,6.76,6.76,0,0,1-.1-1.65c.312-.295.631-.583.928-.893a3.258,3.258,0,0,0,.532-.653c.068-.118.221-.091.336-.093-.075-.263-.146-.528-.214-.794a3.819,3.819,0,0,1-.623,1.033m.744.094a5.188,5.188,0,0,1-.664.749c-.234.231-.464.465-.7.69a4.962,4.962,0,0,0,.138,1.61c.042.1.089.267.229.244a2.794,2.794,0,0,1,.747,0,.809.809,0,0,1,.646.543,4.2,4.2,0,0,1,.164,1.143c.042.586,0,1.173-.011,1.759-.039.677-.087,1.353-.153,2.028a16.416,16.416,0,0,1-.3,2.071,35.892,35.892,0,0,0-.754,4.427,18.526,18.526,0,0,0,0,2.877,2.928,2.928,0,0,0,.142.753c.032.113.167.118.265.123a.658.658,0,0,0,.433-.065,1.284,1.284,0,0,0,.028-.32c.044-.626.08-1.252.128-1.878a22.387,22.387,0,0,1,.339-2.779,10.018,10.018,0,0,1,.81-1.776c-.034-.4-.1-.806-.153-1.209a5.515,5.515,0,0,1-.093-1c.139-2.013.33-4.022.446-6.036.108-.75.455-1.441.587-2.185a1.348,1.348,0,0,0-.124-.8,8.751,8.751,0,0,0-.945-.5,6.073,6.073,0,0,0-1.2-.47M38.321,62.6a.46.46,0,0,0-.167.242,1.84,1.84,0,0,0,.064.65,1.563,1.563,0,0,1,.105.424,8.321,8.321,0,0,1-.074.861.5.5,0,0,0-.011.2,25.558,25.558,0,0,1,.875-2.923,5.628,5.628,0,0,0-.791.543M89.95,64.065a1.285,1.285,0,0,1-.278.338c.315.114.629.233.943.352a1.866,1.866,0,0,0-.143-.462.612.612,0,0,0-.522-.228m-2.384,4.694a7.8,7.8,0,0,0-.555,1.186,16.878,16.878,0,0,0-.745,2.614,17.931,17.931,0,0,0-.366,2.633c-.05.574-.019,1.151-.025,1.726.044.831.1,1.662.2,2.488.186-.309.358-.626.524-.946l-.028-.045c-.032-.333-.065-.667-.12-1a1.066,1.066,0,0,1,.1-.332c.264-.667.558-1.322.854-1.975a1.279,1.279,0,0,0,.161-.486,2.655,2.655,0,0,0-.041-.649c.159-.109.322-.213.483-.32.157-.14.357.012.531.036-.112.038-.227.068-.34.1-.135.1-.269.193-.4.288a2.351,2.351,0,0,1-.055.869c-.352.789-.724,1.571-1.028,2.381.132,0,.264.01.4,0a.572.572,0,0,0,.074-.147c.3-.748.649-1.475.946-2.223a4.194,4.194,0,0,1,.11-.7,2.494,2.494,0,0,1,.1.49c.1-.5.237-.988.366-1.479a.784.784,0,0,0-.011-.329,4.8,4.8,0,0,0-.418-1.333c-.222-.1-.454.032-.673.075,0-.236.037-.469.045-.7a8.854,8.854,0,0,0-.761,2.527,7.041,7.041,0,0,1-.2,1.12,4.113,4.113,0,0,1,.046-1.232,9.533,9.533,0,0,1,.379-1.722,4.429,4.429,0,0,1,1-1.776c-.088-.384-.17-.77-.25-1.156l-.281.015m.236,1.935c.02.213.021.428.047.641.216-.007.5-.037.623.19a5.166,5.166,0,0,1,.344,1.243c.091-.323.155-.652.221-.981a2.473,2.473,0,0,0-.982-1.484,1.745,1.745,0,0,0-.253.39M92,71.9c.024.179.028.36.05.54a2.871,2.871,0,0,0,.125-.347A.57.57,0,0,0,92,71.9m.538.028a.933.933,0,0,1-.113.646c-.2.429-.433.837-.647,1.257a2.668,2.668,0,0,0-.272.734,22.487,22.487,0,0,0-.307,2.65q-.088,1.323-.18,2.646a11.175,11.175,0,0,1-.141,1.184.426.426,0,0,1-.188.311,1.214,1.214,0,0,1-.646.042c-.775-.071-1.53-.289-2.3-.353a1.578,1.578,0,0,0-.5.571,2.365,2.365,0,0,0-.122.481.683.683,0,0,1-.319.382.809.809,0,0,1-.512.04,8.375,8.375,0,0,1-1.079,1.31c-.519.541-1.051,1.068-1.617,1.56a21.82,21.82,0,0,1-3.727,2.621,33.016,33.016,0,0,1-4.206,1.946,51.239,51.239,0,0,1-9.9,2.666,44.632,44.632,0,0,1-5.361.56,7.262,7.262,0,0,1-.763.022c.062.276.03.562.065.842.024.649.021,1.3.012,1.95.624.006,1.249-.014,1.873-.037.474.01.947-.041,1.421-.041.675-.039,1.349-.067,2.023-.112,1.714-.112,3.423-.289,5.122-.542a42.1,42.1,0,0,0,5.362-1.134,31.088,31.088,0,0,0,4.372-1.588,14.1,14.1,0,0,0,5.44-4.127,13.392,13.392,0,0,0,2.248-4.089,2.186,2.186,0,0,1-.679.342.241.241,0,0,1-.167-.223,9.5,9.5,0,0,1,.062-1.44l-.128-.1a.388.388,0,0,1,.2.077c.095.45.072.914.126,1.37a3.485,3.485,0,0,0,.862-.605,1.98,1.98,0,0,0,.353-.644c-.13,0-.286-.038-.384.072a3.371,3.371,0,0,0-.5.743,1.425,1.425,0,0,1,.2-.769.572.572,0,0,1,.492-.326c.447,0,.895-.007,1.342-.029a4,4,0,0,0,1.2-.244,1.474,1.474,0,0,0,.574-.572,8.953,8.953,0,0,0,.863-1.931,18.522,18.522,0,0,0,.642-2.521,17.95,17.95,0,0,0,.226-2.868q0-1.281-.119-2.559c-.031-.083-.133-.115-.2-.172M36.494,74.151a9.121,9.121,0,0,0-1.213,3.076,6.461,6.461,0,0,0,.159,2.742,11.975,11.975,0,0,0,1.07,2.57A9.2,9.2,0,0,0,37.7,84.29a13.815,13.815,0,0,0,3.055,2.564,25.81,25.81,0,0,0,4.524,2.252,36.667,36.667,0,0,0,4.613,1.457,4.75,4.75,0,0,0,.869-.034c.129-.142.243-.3.364-.444-.708-.094-1.407-.246-2.1-.4-.9-.211-1.787-.45-2.661-.74a24.915,24.915,0,0,1-4.527-1.975,14.465,14.465,0,0,1-3.607-2.861A10.1,10.1,0,0,1,36,80.216a7.1,7.1,0,0,1-.173-2.986,8.49,8.49,0,0,1,1.3-3.286c.059-.1.161-.188.162-.311.007-.262.007-.524.015-.785-.277.429-.553.86-.807,1.3m-.374,4.411a8.221,8.221,0,0,0,.1.932,8.842,8.842,0,0,1,.265-1.643,4.176,4.176,0,0,1,.779-1.622c.064-.059.05-.15.057-.228a2.586,2.586,0,0,0-.011-.725c-.016-.423-.019-.846-.026-1.269a8.336,8.336,0,0,0-1.164,4.555m51.207-1.143a3.2,3.2,0,0,1-.2.518,13.251,13.251,0,0,1-2.789,4.1A18.261,18.261,0,0,1,82.758,83.4a31.215,31.215,0,0,1-8.206,4.562,42.376,42.376,0,0,1-9.9,2.376,53.783,53.783,0,0,1-7.8.368c-.492-.026-.985-.018-1.477-.058a2.084,2.084,0,0,0,.52.5.238.238,0,0,0,.151.042c1.658,0,3.317.016,4.971-.109a50.138,50.138,0,0,0,10.864-1.967c1.426-.42,2.841-.883,4.222-1.435a26.532,26.532,0,0,0,4.359-2.15,31.179,31.179,0,0,0,4.865-3.923,6.318,6.318,0,0,0,.869-1.08,24.8,24.8,0,0,0,2.063-4.17.73.73,0,0,0,.031-.28c0-.324,0-.649,0-.972-.281.786-.611,1.553-.959,2.311M36.422,79.865a.855.855,0,0,0-.012.359,7.9,7.9,0,0,0,.382,1,9.9,9.9,0,0,0,1.365,2.193,13.924,13.924,0,0,1-.577-2.442,22.97,22.97,0,0,1-.243-2.641c-.044-.593-.024-1.187-.03-1.781a9.558,9.558,0,0,0-.885,3.312m50.756-.61a11.844,11.844,0,0,1-1.307,2.138,13.449,13.449,0,0,1-1.088,1.093c-.584.55-1.176,1.093-1.8,1.6a22.51,22.51,0,0,1-3.875,2.587,31.742,31.742,0,0,1-4.2,1.807c-1.438.505-2.9.943-4.373,1.331a46.842,46.842,0,0,1-10.556,1.537c-.551.024-1.1.012-1.654.043.169.006.338.005.508.01a.712.712,0,0,1,.169.4,7.145,7.145,0,0,1,.055,1.07c-.034.032-.068.065-.1.1a48.171,48.171,0,0,0,13.185-2.136c1.475-.456,2.935-.964,4.36-1.559a27.839,27.839,0,0,0,4.426-2.268,21.032,21.032,0,0,0,3.3-2.621c.454-.45.91-.9,1.325-1.385a8.43,8.43,0,0,0,.687-.966,29.069,29.069,0,0,0,2.038-4.19.649.649,0,0,0,.034-.312c-.014-.3-.024-.59-.024-.885q-.494,1.33-1.117,2.609m-.511-1.694c.014.236.007.473.015.711.114-.231.216-.468.31-.709-.109,0-.217,0-.325,0M88.085,79.1a1.894,1.894,0,0,1,.477.484A.465.465,0,0,1,88.6,80a3.121,3.121,0,0,1-.426.726c.355.041.706.111,1.059.166a6,6,0,0,0,1.234.119,10.921,10.921,0,0,0,.147-1.362,2.39,2.39,0,0,1-1.035.056,1.542,1.542,0,0,1-.964-.372,1.971,1.971,0,0,1-.239-.927c-.1.231-.2.461-.3.692M87.4,80.577a6.164,6.164,0,0,1-.4.741,8.435,8.435,0,0,1-.6,1.057.484.484,0,0,0,.389-.185c.139-.185.042-.43.138-.631a1.849,1.849,0,0,1,.607-.808.664.664,0,0,1,.464-.05,4.611,4.611,0,0,0,.4-.876,1.685,1.685,0,0,0-.385-.555c-.2.439-.4.877-.614,1.308m-51.7,1.09a9.707,9.707,0,0,0,2.1,4.086,12.249,12.249,0,0,0,1.707,1.733,19.416,19.416,0,0,0,3.942,2.449,33.307,33.307,0,0,0,4.633,1.8c-.059-.4-.036-.8-.078-1.2a.8.8,0,0,1,.05-.272,35.085,35.085,0,0,1-3.6-1.21,23.157,23.157,0,0,1-4.5-2.35A12.3,12.3,0,0,1,36.829,83.7,13.7,13.7,0,0,1,35.7,81.667m3.7,6.315c-.028.454-.017.909-.052,1.362a1.319,1.319,0,0,0,.023.5,2.678,2.678,0,0,0,.6.973,8.621,8.621,0,0,0,1.521,1.31,20.024,20.024,0,0,0,4.545,2.3,37.323,37.323,0,0,0,4.578,1.329,6.549,6.549,0,0,1-.079-1.675c-.221-.231-.136-.582-.153-.871-.031-.212-.072-.423-.1-.636-.1,0-.2,0-.305-.008a1.114,1.114,0,0,1-1.013.875.964.964,0,0,1-.707-.7c-.069-.173.053-.333.122-.482a.33.33,0,0,1-.268-.3,26.588,26.588,0,0,1-4.822-1.636,18.485,18.485,0,0,1-3.9-2.332m42.047,4.125a21.759,21.759,0,0,1-1.972.97c-.748.311-1.5.614-2.269.87a36.482,36.482,0,0,1-4.92,1.268,55.549,55.549,0,0,1-8.32.882c-.4.031-.793.01-1.189.029q-1.536.043-3.072.007a5.708,5.708,0,0,1-.518.618c.254.021.509.009.762.032.419.031.84.014,1.26.043,1.008.034,2.016.011,3.024.017.562,0,1.123-.039,1.685-.04.255-.01.509-.039.764-.036,1.176-.062,2.351-.153,3.832-.319,1.243-.137,2.787-.378,4.315-.707a31.372,31.372,0,0,0,4.966-1.463,15.5,15.5,0,0,0,3.9-2.136,6.5,6.5,0,0,0,1.553-1.78,2.851,2.851,0,0,0,.391-1.95,13.789,13.789,0,0,1-4.194,3.7M51.576,90.042a.985.985,0,0,0-.229.181,6.289,6.289,0,0,1,1.031-.072.2.2,0,0,1,.214.225,2.625,2.625,0,0,1-.3.8.3.3,0,0,1-.258.189c-.443-.008-.886-.031-1.329-.027-.272.307-.2.743-.221,1.119.05-.167.086-.379.262-.461a2.146,2.146,0,0,1,.48-.014,13.061,13.061,0,0,1,1.46.134,5.269,5.269,0,0,1,1.1.247c.21.138.218.423.231.649a1.629,1.629,0,0,0-.2-.474c-.082-.093-.214-.089-.326-.112-.523-.073-1.05-.109-1.576-.164a8.963,8.963,0,0,0-1.1-.043,1.786,1.786,0,0,0-.2.686,19.047,19.047,0,0,1,1.955.19,4.346,4.346,0,0,1,.882.187,1.626,1.626,0,0,1,.464.609c.08.173.167.407.018.569-.131.086-.3.043-.446.054-.448-.018-.9-.047-1.341-.091a8.16,8.16,0,0,1-1.293-.218c.08.256.135.521.231.772.3.077.608.125.914.18a20.025,20.025,0,0,0,2.142.289c-.037-.281-.04-.564-.065-.846.115.256.189.527.293.788a1.888,1.888,0,0,0,.239.093,3.668,3.668,0,0,0,.528-.558c-.055-.331-.107-.662-.164-.992a.649.649,0,0,1-.3.35.639.639,0,0,1-.384-.07.923.923,0,0,1-.161-.518,7.039,7.039,0,0,0-.1-1.164.59.59,0,0,0-.456-.45c-.88-.1-1.763-.171-2.647-.221a.455.455,0,0,0-.186.01,1.773,1.773,0,0,0-.171.21c-.063-.16.006-.4.2-.411.781,0,1.561.06,2.34.107.28.047.6-.011.838.181a1.212,1.212,0,0,1,.416.874,5.087,5.087,0,0,0,.1,1.138c.041.021.085.037.127.055a9.182,9.182,0,0,0,.561-1.068c.694.066,1.39.119,2.084.182a4.215,4.215,0,0,0,.807.03,1.412,1.412,0,0,0,.744-.392,4.076,4.076,0,0,0-.078-1.092l-1.543-.033c-.369-.011-.74.01-1.109-.011a2.143,2.143,0,0,1-1.081-1.24,1.367,1.367,0,0,0-.581-.221,8.933,8.933,0,0,0-1.48-.145,9.2,9.2,0,0,0-1.331.015m-3.334.262a.4.4,0,0,0,.05.25,1.857,1.857,0,0,0,.816.52c.1-.161.211-.315.313-.475q-.593-.133-1.179-.294m2.857.233c.046,0,.092,0,.138,0a1.553,1.553,0,0,1,.2-.147c-.076,0-.151,0-.226-.005-.038.05-.076.1-.114.152m.8-.119a1.813,1.813,0,0,1,.3.18,4.512,4.512,0,0,1-.512-.054,1.262,1.262,0,0,0-.4.182A1.17,1.17,0,0,0,51,90.681a.939.939,0,0,1-.228.109,9.183,9.183,0,0,1-1.187.048c-.2.31-.4.624-.59.939a8.583,8.583,0,0,0-.485.849,1.049,1.049,0,0,0,.341.506.38.38,0,0,0,.3.03.9.9,0,0,0,.618-.636c.062-.263-.072-.52-.052-.783a1.1,1.1,0,0,1,.28.7h.273A1.694,1.694,0,0,1,50.44,91.2c.142-.221.438-.151.66-.169a.645.645,0,0,1,.508-.312.544.544,0,0,1,.444.241,4.264,4.264,0,0,0,.222-.531,3.549,3.549,0,0,0-.372-.01m-.7.6c.187.016.375,0,.562.011.1,0,.219.023.307-.05a2.716,2.716,0,0,0-.422-.062,2.807,2.807,0,0,0-.447.1m-2.9-.037c.041.322.074.645.14.963l.086.059q.227-.4.482-.778a1.957,1.957,0,0,1-.708-.244m36.672.277a9.479,9.479,0,0,1-3.037,2.373,27.313,27.313,0,0,1-6.818,2.4,53.58,53.58,0,0,1-10.046,1.157c-.983.015-1.966.043-2.948.013-.521-.019-1.042,0-1.563-.037-.294-.024-.59,0-.883-.032s-.59-.015-.883-.047c-1.184-.051-2.364-.164-3.546-.25a1.968,1.968,0,0,0-.323.341c-.181.19-.339.4-.533.577a1.333,1.333,0,0,1-.594.243,58.332,58.332,0,0,0,10.625.721c.472.012.942-.04,1.414-.039a51.767,51.767,0,0,0,9.1-1.151,18.174,18.174,0,0,0,4.091-1.376c.777-.364,1.541-.756,2.279-1.195a15.41,15.41,0,0,0,1.816-1.214A6.776,6.776,0,0,0,84.6,92.2a2.278,2.278,0,0,0,.371-.94M40.317,91.7A5.267,5.267,0,0,0,41.4,93.058a15.173,15.173,0,0,0,3.663,2.336,30.3,30.3,0,0,0,4.379,1.67c.932.275,1.886.466,2.836.665a2.981,2.981,0,0,1-.717-.715A1.207,1.207,0,0,1,51.3,96.2a35,35,0,0,1-4.576-1.166A22.7,22.7,0,0,1,42.317,93.1a13.32,13.32,0,0,1-2-1.4m42.795,2.416a21.4,21.4,0,0,1-3.978,2.412A16.427,16.427,0,0,1,75.7,97.756,50.6,50.6,0,0,1,65.8,99.1c-.344,0-.686.029-1.03.037-.778,0-1.555.025-2.333.012-.585-.016-1.17,0-1.754-.044-.435,0-.868-.041-1.3-.058A53.2,53.2,0,0,1,50,97.676a30.159,30.159,0,0,1-4.465-1.569,18.523,18.523,0,0,1-3.887-2.237,6.57,6.57,0,0,1-1.614-1.741c.01.183.016.367.028.551a2.212,2.212,0,0,0,.387.818,8.124,8.124,0,0,0,1.609,1.612,9.418,9.418,0,0,0,2.014,1.272,23.49,23.49,0,0,0,2.311.94,44.68,44.68,0,0,0,4.3,1.281,50.021,50.021,0,0,0,5.247,1.008,43.822,43.822,0,0,0,5.119.383c1.2.037,2.4.05,3.6.021.434.013.867-.039,1.3-.039.829-.049,1.657-.1,2.483-.19,1.786-.18,3.56-.471,5.324-.807.946-.182,1.892-.367,2.826-.6a17.922,17.922,0,0,0,3.247-1.195,14.019,14.019,0,0,0,3.546-2.454,9.211,9.211,0,0,0,1.329-1.575,2.717,2.717,0,0,0,.291-1.3,6.219,6.219,0,0,1-1.885,2.266M50.646,93.09a1.053,1.053,0,0,0-.011.824,1.143,1.143,0,0,0,.33.126,10.24,10.24,0,0,0,1.329.2,13.25,13.25,0,0,0,1.5.053,1.293,1.293,0,0,0-.362-.728c-.113-.153-.32-.139-.486-.184-.764-.126-1.534-.211-2.3-.288m8.348.129c.2.189.144.473.149.718.018.773.03,1.547,0,2.32a1.375,1.375,0,0,0,.206-.274,2.022,2.022,0,0,0,.022-.363c0-.8.042-1.6.037-2.4-.138,0-.277.009-.415,0m-3.7.015c-.069.172-.165.332-.225.507.071.4.183.789.246,1.189a1.444,1.444,0,0,1-.331.477.985.985,0,0,1-.365.313,2.051,2.051,0,0,1-.449-.139,5.343,5.343,0,0,1-.842-.04,2.264,2.264,0,0,1,.845.766.785.785,0,0,1,.005.816.892.892,0,0,1-.433.362,1.846,1.846,0,0,1-.949.111,1.64,1.64,0,0,1-1.049-.937.928.928,0,0,1-.075-.786,1.008,1.008,0,0,1,.72-.439,4.429,4.429,0,0,1-.589-.08,2.174,2.174,0,0,0-.247.521.967.967,0,0,0,0,.712,2.369,2.369,0,0,0,.7.831,1.2,1.2,0,0,0,.727.3,2.45,2.45,0,0,0,1.029-.057c.24-.081.372-.311.548-.475.269-.3.551-.594.83-.889a1.355,1.355,0,0,1,.565-.413,2.169,2.169,0,0,1-.446.6c1.089.089,2.178.173,3.269.236.031-.044.062-.088.093-.13-.044-1-.025-2.006,0-3.008.015-.163-.137-.262-.238-.364a1.62,1.62,0,0,1-.907.214c-.811-.06-1.62-.149-2.431-.206m-4.527,2.424c.011.041-.01.112.038.137.185.044.372.076.558.116a2.46,2.46,0,0,1,.289-.576c-.19-.038-.383-.064-.572-.107a.272.272,0,0,1-.212-.137,2.3,2.3,0,0,1-.167-.8c-.006.457.06.913.066,1.371m1.723-.033a1.192,1.192,0,0,0-.523.193.4.4,0,0,0-.153.368,1.569,1.569,0,0,0,.38.79,1.111,1.111,0,0,0,.823.424,1.439,1.439,0,0,0,.781-.2.6.6,0,0,0,.271-.547,1.026,1.026,0,0,0-.3-.52,1.99,1.99,0,0,0-.732-.489A1.238,1.238,0,0,0,52.495,95.625Z" fill="#fff"/>
    <path id="Path_2" data-name="Path 2" d="M1084.25,540.72a12.827,12.827,0,0,1,1.468,1.38,19.035,19.035,0,0,1,3.788,6.189,19.439,19.439,0,0,1,1.043,4.952,21.6,21.6,0,0,1-.243,5.613,15.834,15.834,0,0,1-1.561,4.609,14.668,14.668,0,0,1-2.61,3.428,17.411,17.411,0,0,1-3.723,2.78,11.978,11.978,0,0,1-1.722.811,18.256,18.256,0,0,0,3.684-2.336,16.48,16.48,0,0,0,3.2-3.449,13.692,13.692,0,0,0,1.891-4.08,21.609,21.609,0,0,0,.141-11.089,18.133,18.133,0,0,0-1.9-4.516A17.841,17.841,0,0,0,1084.25,540.72Z" transform="translate(-1005.803 -483.545)" fill="#fff"/>
    <path id="Path_3" data-name="Path 3" d="M1519.23,667.6a2.747,2.747,0,0,1,.938-.99A2.747,2.747,0,0,1,1519.23,667.6Z" transform="translate(-1427.573 -604.62)" fill="#fff"/>
    <path id="Path_4" data-name="Path 4" d="M1458.86,675.74a3.106,3.106,0,0,1,.93.272,2.014,2.014,0,0,1,.66.421A13.375,13.375,0,0,1,1458.86,675.74Z" transform="translate(-1369.512 -613.401)" fill="#fff"/>
    <path id="Path_5" data-name="Path 5" d="M1479.68,713.37a1.27,1.27,0,0,1,.706.976,3.273,3.273,0,0,1-.036,1.034c-.139,1.516-.217,3.037-.339,4.555a6.915,6.915,0,0,1-.191,1.1c-.224,1.029-.44,2.059-.613,3.1a17.491,17.491,0,0,0-.229,2.833,9.051,9.051,0,0,0,.129,1.587,9.124,9.124,0,0,1-.225-2.541,16.625,16.625,0,0,1,.254-2.712c.147-.912.325-1.818.5-2.724a11.414,11.414,0,0,0,.146-1.564c.08-1.365.151-2.731.291-4.091A2.361,2.361,0,0,0,1479.68,713.37Z" transform="translate(-1388.769 -649.592)" fill="#fff"/>
    <path id="Path_6" data-name="Path 6" d="M1428.759,788.05c.528.21,1.059.409,1.587.619l-.034.117q-.8-.306-1.6-.621C1428.725,788.126,1428.742,788.088,1428.759,788.05Z" transform="translate(-1340.515 -721.416)" fill="#fff"/>
    <path id="Path_7" data-name="Path 7" d="M1374.926,902.914a4.875,4.875,0,0,1,.283-.695,25.42,25.42,0,0,0-.741,5.61c-.016.514-.018,1.028,0,1.542a10,10,0,0,1-.152-1.691,21.086,21.086,0,0,1,.115-2.414A11.56,11.56,0,0,1,1374.926,902.914Z" transform="translate(-1288.202 -831.221)" fill="#fff"/>
    <path id="Path_8" data-name="Path 8" d="M1505.248,951.475a6.811,6.811,0,0,1,.563-.935c-.2.558-.459,1.089-.652,1.648a2.36,2.36,0,0,0-.088.468c-.114.968-.212,1.938-.311,2.908-.044.562-.117,1.122-.124,1.686-.035.458-.029.919-.106,1.373a1.494,1.494,0,0,1-.22.622,3.339,3.339,0,0,0,.2-1.343,45.67,45.67,0,0,1,.366-5.393A3.077,3.077,0,0,1,1505.248,951.475Z" transform="translate(-1413.224 -877.693)" fill="#fff"/>
    <path id="Path_9" data-name="Path 9" d="M118.587,1123.923a8.84,8.84,0,0,1-1.157-3.043A9.7,9.7,0,0,0,119.6,1125a11.843,11.843,0,0,0,3.339,2.623c.8.436,1.61.862,2.45,1.221a31.1,31.1,0,0,0,10.108,2.326c.885.071,1.773.086,2.66.135-.67.012-1.339-.016-2.009-.02a37.6,37.6,0,0,1-5.4-.545,27.084,27.084,0,0,1-7.045-2.237,12.422,12.422,0,0,1-2.009-1.2A11.425,11.425,0,0,1,118.587,1123.923Z" transform="translate(-79.38 -1041.519)" fill="#fff"/>
    <path id="Path_10" data-name="Path 10" d="M1080.4,1226.956a44.278,44.278,0,0,0,2.408-3.936,11.143,11.143,0,0,1-.927,2.125,20.009,20.009,0,0,1-2.794,3.826,13.128,13.128,0,0,1-3.48,2.682,8.915,8.915,0,0,1-4.974,1.018,9.577,9.577,0,0,0,2.432-.235,10.412,10.412,0,0,0,4.14-2.062A17.025,17.025,0,0,0,1080.4,1226.956Z" transform="translate(-996.128 -1139.753)" fill="#fff"/>
    <path id="Path_11" data-name="Path 11" d="M1075.058,1295.841c.418-.444.826-.9,1.243-1.341a15.94,15.94,0,0,1-1.414,1.895,17.359,17.359,0,0,1-3.006,2.818,7.645,7.645,0,0,1-2.357,1.178,11.5,11.5,0,0,1-2.083.368,20.2,20.2,0,0,0,2.264-.676,8.984,8.984,0,0,0,2.2-1.309A29.992,29.992,0,0,0,1075.058,1295.841Z" transform="translate(-993.06 -1208.499)" fill="#fff"/>
    <path id="Path_12" data-name="Path 12" d="M540.9,1414.4a2.28,2.28,0,0,1,.567-1.063A2.678,2.678,0,0,1,540.9,1414.4Z" transform="translate(-486.656 -1322.795)" fill="#fff"/>
    <path id="Path_13" data-name="Path 13" d="M406.859,1440.795c-.039-.2.192-.325.359-.365a1.423,1.423,0,0,1-.127.319,2.076,2.076,0,0,1,.116.732A2.228,2.228,0,0,1,406.859,1440.795Z" transform="translate(-357.736 -1348.849)" fill="#fff"/>
    <path id="Path_14" data-name="Path 14" d="M565.52,1442.67a4,4,0,0,0,1.239.261,10.746,10.746,0,0,0,1.379.061,2.294,2.294,0,0,0,.787-.243,1.066,1.066,0,0,1-.707.466,6.862,6.862,0,0,1-1.629-.133A2.366,2.366,0,0,1,565.52,1442.67Z" transform="translate(-510.334 -1351.003)" fill="#fff"/>
    <path id="Path_15" data-name="Path 15" d="M630.027,1462.14a.74.74,0,0,1,.08.514A.377.377,0,0,1,630.027,1462.14Z" transform="translate(-572.311 -1369.729)" fill="#fff"/>
    <path id="Path_16" data-name="Path 16" d="M521.307,1468.894a.53.53,0,0,1,.127-.594A.847.847,0,0,1,521.307,1468.894Z" transform="translate(-467.772 -1375.653)" fill="#fff"/>
    <path id="Path_17" data-name="Path 17" d="M573.82,1488.88a1.391,1.391,0,0,1,.8,1.648,2.179,2.179,0,0,0-.233-.864A4.962,4.962,0,0,0,573.82,1488.88Z" transform="translate(-518.317 -1395.446)" fill="#fff"/>
    <path id="Path_18" data-name="Path 18" d="M541.01,1548.41a.781.781,0,0,1,.4,1.105A2.659,2.659,0,0,0,541.01,1548.41Z" transform="translate(-486.761 -1452.7)" fill="#fff"/>
  </g>
</svg>
